# Blender v2.83.5 OBJ File: 'OneillCylinder.blend'
# www.blender.org
mtllib BaseCylinder.mtl
o Cylinder_Cylinder.001
v -9868.486328 6449.407715 -6456.650391
v 9868.486328 6449.409668 -6456.650391
v -9868.486328 6127.570312 -6448.624512
v 9868.486328 6127.571777 -6448.624512
v -9868.486328 5806.533203 -6424.565918
v 9868.486328 5806.534668 -6424.565918
v -9868.486328 5487.094238 -6384.534668
v 9868.486328 5487.095703 -6384.534668
v -9868.486328 5170.047852 -6328.631348
v 9868.486328 5170.048828 -6328.631348
v -9868.486328 4856.181641 -6256.993164
v 9868.486328 4856.183105 -6256.993164
v -9868.486328 4546.276855 -6169.799316
v 9868.486328 4546.278320 -6169.799316
v -9868.486328 4241.103516 -6067.266602
v 9868.486328 4241.104980 -6067.266602
v -9868.486328 3941.420166 -5949.649414
v 9868.486328 3941.421631 -5949.649414
v -9868.486328 3647.972168 -5817.240723
v 9868.486328 3647.973633 -5817.240723
v -9868.486328 3361.489014 -5670.369629
v 9868.486328 3361.490479 -5670.369629
v -9868.486328 3082.683105 -5509.400879
v 9868.486328 3082.684570 -5509.400879
v -9868.486328 2812.247070 -5334.734863
v 9868.486328 2812.248535 -5334.734863
v -9868.486328 2550.854004 -5146.805664
v 9868.486328 2550.855469 -5146.805664
v -9868.486328 2299.152832 -4946.081055
v 9868.486328 2299.154785 -4946.081055
v -9868.486328 2057.769531 -4733.059570
v 9868.486328 2057.771484 -4733.059570
v -9868.486328 1827.305664 -4508.270508
v 9868.486328 1827.307617 -4508.270508
v -9868.486328 1608.332520 -4272.273438
v 9868.486328 1608.334473 -4272.273438
v -9868.486328 1401.395020 -4025.655273
v 9868.486328 1401.396973 -4025.655273
v -9868.486328 1207.007812 -3769.028564
v 9868.486328 1207.009766 -3769.028564
v -9868.486328 1025.653809 -3503.031250
v 9868.486328 1025.655762 -3503.031250
v -9868.486328 857.784180 -3228.324951
v 9868.486328 857.786133 -3228.324951
v -9868.486328 703.816406 -2945.592529
v 9868.486328 703.818359 -2945.592529
v -9868.486328 564.132812 -2655.536865
v 9868.486328 564.134766 -2655.536865
v -9868.486328 439.081543 -2358.878906
v 9868.486328 439.083496 -2358.878906
v -9868.486328 328.972168 -2056.356689
v 9868.486328 328.974121 -2056.356689
v -9868.486328 234.079590 -1748.721802
v 9868.486328 234.081543 -1748.721802
v -9868.486328 154.639160 -1436.739380
v 9868.486328 154.641113 -1436.739380
v -9868.486328 90.848145 -1121.185059
v 9868.486328 90.850098 -1121.185059
v -9868.486328 42.865723 -802.843262
v 9868.486328 42.867676 -802.843262
v -9868.486328 10.811035 -482.505493
v 9868.486328 10.812988 -482.505493
v -9868.486328 -5.235840 -160.968124
v 9868.486328 -5.233887 -160.968124
v -9868.486328 -5.235840 160.969452
v 9868.486328 -5.233887 160.969452
v -9868.486328 10.811523 482.506836
v 9868.486328 10.813477 482.506836
v -9868.486328 42.866211 802.844604
v 9868.486328 42.868164 802.844604
v -9868.486328 90.848633 1121.186401
v 9868.486328 90.850586 1121.186401
v -9868.486328 154.639160 1436.740723
v 9868.486328 154.641113 1436.740723
v -9868.486328 234.080078 1748.723145
v 9868.486328 234.082031 1748.723145
v -9868.486328 328.972656 2056.357910
v 9868.486328 328.974609 2056.357910
v -9868.486328 439.081543 2358.880127
v 9868.486328 439.083496 2358.880127
v -9868.486328 564.133789 2655.538086
v 9868.486328 564.135742 2655.538086
v -9868.486328 703.817383 2945.593750
v 9868.486328 703.819336 2945.593750
v -9868.486328 857.784668 3228.325684
v 9868.486328 857.786621 3228.325684
v -9868.486328 1025.653809 3503.031250
v 9868.486328 1025.655762 3503.031250
v -9868.486328 1207.007324 3769.027832
v 9868.486328 1207.009277 3769.027832
v -9868.486328 1401.394043 4025.654053
v 9868.486328 1401.395996 4025.654053
v -9868.486328 1608.330566 4272.271973
v 9868.486328 1608.332520 4272.271973
v -9868.486328 1827.303223 4508.268555
v 9868.486328 1827.305176 4508.268555
v -9868.486328 2057.767090 4733.057129
v 9868.486328 2057.769043 4733.057129
v -9868.486328 2299.149414 4946.078125
v 9868.486328 2299.151367 4946.078125
v -9868.486328 2550.849854 5146.802734
v 9868.486328 2550.851318 5146.802734
v -9868.486328 2812.242432 5334.731445
v 9868.486328 2812.243896 5334.731445
v -9868.486328 3082.677490 5509.397461
v 9868.486328 3082.678955 5509.397461
v -9868.486328 3361.482666 5670.366211
v 9868.486328 3361.484131 5670.366211
v -9868.486328 3647.964844 5817.237305
v 9868.486328 3647.966309 5817.237305
v -9868.486328 3941.412109 5949.645996
v 9868.486328 3941.413574 5949.645996
v -9868.486328 4241.094238 6067.263184
v 9868.486328 4241.095703 6067.263184
v -9868.486328 4546.266602 6169.796387
v 9868.486328 4546.268066 6169.796387
v -9868.486328 4856.170898 6256.990723
v 9868.486328 4856.172363 6256.990723
v -9868.486328 5170.036133 6328.628418
v 9868.486328 5170.037109 6328.628418
v -9868.486328 5487.081543 6384.532715
v 9868.486328 5487.083008 6384.532715
v -9868.486328 5806.520020 6424.564453
v 9868.486328 5806.521484 6424.564453
v -9868.486328 6127.556641 6448.623535
v 9868.486328 6127.557617 6448.623535
v -9868.486328 6449.393066 6456.650391
v 9868.486328 6449.394531 6456.650391
v -9868.486328 6771.229980 6448.625000
v 9868.486328 6771.231445 6448.625000
v -9868.486328 7092.266602 6424.567383
v 9868.486328 7092.268066 6424.567383
v -9868.486328 7411.705078 6384.537598
v 9868.486328 7411.706543 6384.537598
v -9868.486328 7728.750977 6328.634766
v 9868.486328 7728.752441 6328.634766
v -9868.486328 8042.616211 6256.998047
v 9868.486328 8042.617676 6256.998047
v -9868.486328 8352.520508 6169.805176
v 9868.486328 8352.522461 6169.805176
v -9868.486328 8657.693359 6067.273438
v 9868.486328 8657.695312 6067.273438
v -9868.486328 8957.376953 5949.657715
v 9868.486328 8957.377930 5949.657715
v -9868.486328 9250.824219 5817.250000
v 9868.486328 9250.826172 5817.250000
v -9868.486328 9537.307617 5670.379883
v 9868.486328 9537.308594 5670.379883
v -9868.486328 9816.113281 5509.412598
v 9868.486328 9816.114258 5509.412598
v -9868.486328 10086.548828 5334.748047
v 9868.486328 10086.550781 5334.748047
v -9868.486328 10347.942383 5146.820312
v 9868.486328 10347.944336 5146.820312
v -9868.486328 10599.643555 4946.097168
v 9868.486328 10599.645508 4946.097168
v -9868.486328 10841.026367 4733.077148
v 9868.486328 10841.028320 4733.077148
v -9868.486328 11071.491211 4508.290039
v 9868.486328 11071.493164 4508.290039
v -9868.486328 11290.464844 4272.294434
v 9868.486328 11290.466797 4272.294434
v -9868.486328 11497.404297 4025.676514
v 9868.486328 11497.406250 4025.676514
v -9868.486328 11691.792969 3769.049316
v 9868.486328 11691.794922 3769.049316
v -9868.486328 11873.148438 3503.052490
v 9868.486328 11873.150391 3503.052490
v -9868.486328 12041.019531 3228.345947
v 9868.486328 12041.021484 3228.345947
v -9868.486328 12194.988281 2945.613281
v 9868.486328 12194.990234 2945.613281
v -9868.486328 12334.673828 2655.557373
v 9868.486328 12334.675781 2655.557373
v -9868.486328 12459.726562 2358.899170
v 9868.486328 12459.728516 2358.899170
v -9868.486328 12569.836914 2056.376465
v 9868.486328 12569.838867 2056.376465
v -9868.486328 12664.730469 1748.741211
v 9868.486328 12664.732422 1748.741211
v -9868.486328 12744.171875 1436.758301
v 9868.486328 12744.173828 1436.758301
v -9868.486328 12807.963867 1121.203491
v 9868.486328 12807.965820 1121.203491
v -9868.486328 12855.947266 802.861023
v 9868.486328 12855.949219 802.861023
v -9868.486328 12888.001953 482.522583
v 9868.486328 12888.003906 482.522583
v -9868.486328 12904.050781 160.984482
v 9868.486328 12904.052734 160.984482
v -9868.486328 12904.051758 -160.953857
v 9868.486328 12904.053711 -160.953857
v -9868.486328 12888.004883 -482.492035
v 9868.486328 12888.006836 -482.492035
v -9868.486328 12855.951172 -802.830688
v 9868.486328 12855.953125 -802.830688
v -9868.486328 12807.968750 -1121.173218
v 9868.486328 12807.970703 -1121.173218
v -9868.486328 12744.179688 -1436.728516
v 9868.486328 12744.181641 -1436.728516
v -9868.486328 12664.739258 -1748.711792
v 9868.486328 12664.741211 -1748.711792
v -9868.486328 12569.845703 -2056.347412
v 9868.486328 12569.847656 -2056.347412
v -9868.486328 12459.738281 -2358.870605
v 9868.486328 12459.740234 -2358.870605
v -9868.486328 12334.685547 -2655.529297
v 9868.486328 12334.687500 -2655.529297
v -9868.486328 12195.001953 -2945.585938
v 9868.486328 12195.003906 -2945.585938
v -9868.486328 12041.034180 -3228.319336
v 9868.486328 12041.036133 -3228.319336
v -9868.486328 11873.164062 -3503.026611
v 9868.486328 11873.166016 -3503.026611
v -9868.486328 11691.810547 -3769.024658
v 9868.486328 11691.812500 -3769.024658
v -9868.486328 11497.422852 -4025.652100
v 9868.486328 11497.424805 -4025.652100
v -9868.486328 11290.484375 -4272.271484
v 9868.486328 11290.486328 -4272.271484
v -9868.486328 11071.511719 -4508.269043
v 9868.486328 11071.513672 -4508.269043
v -9868.486328 10841.046875 -4733.058105
v 9868.486328 10841.048828 -4733.058105
v -9868.486328 10599.664062 -4946.080566
v 9868.486328 10599.666016 -4946.080566
v -9868.486328 10347.962891 -5146.805664
v 9868.486328 10347.963867 -5146.805664
v -9868.486328 10086.568359 -5334.735352
v 9868.486328 10086.569336 -5334.735352
v -9868.486328 9816.131836 -5509.401367
v 9868.486328 9816.132812 -5509.401367
v -9868.486328 9537.325195 -5670.370605
v 9868.486328 9537.326172 -5670.370605
v -9868.486328 9250.840820 -5817.242188
v 9868.486328 9250.841797 -5817.242188
v -9868.486328 8957.392578 -5949.650879
v 9868.486328 8957.393555 -5949.650879
v -9868.486328 8657.708008 -6067.268066
v 9868.486328 8657.708984 -6067.268066
v -9868.486328 8352.534180 -6169.801270
v 9868.486328 8352.535156 -6169.801270
v -9868.486328 8042.627930 -6256.994629
v 9868.486328 8042.629395 -6256.994629
v -9868.486328 7728.761230 -6328.632324
v 9868.486328 7728.762695 -6328.632324
v -9868.486328 7411.713867 -6384.536133
v 9868.486328 7411.715332 -6384.536133
v -9868.486328 7092.273926 -6424.566895
v 9868.486328 7092.275391 -6424.566895
v -9868.486328 6771.235840 -6448.625000
v 9868.486328 6771.237305 -6448.625000
vt 1.000000 0.500000
vt 0.992063 0.500000
vt 0.992063 1.000000
vt 1.000000 1.000000
vt 0.984127 0.500000
vt 0.984127 1.000000
vt 0.976190 0.500000
vt 0.976190 1.000000
vt 0.968254 0.500000
vt 0.968254 1.000000
vt 0.960317 0.500000
vt 0.960317 1.000000
vt 0.952381 0.500000
vt 0.952381 1.000000
vt 0.944444 0.500000
vt 0.944444 1.000000
vt 0.936508 0.500000
vt 0.936508 1.000000
vt 0.928571 0.500000
vt 0.928571 1.000000
vt 0.920635 0.500000
vt 0.920635 1.000000
vt 0.912698 0.500000
vt 0.912698 1.000000
vt 0.904762 0.500000
vt 0.904762 1.000000
vt 0.896825 0.500000
vt 0.896825 1.000000
vt 0.888888 0.500000
vt 0.888888 1.000000
vt 0.880952 0.500000
vt 0.880952 1.000000
vt 0.873015 0.500000
vt 0.873015 1.000000
vt 0.865079 0.500000
vt 0.865079 1.000000
vt 0.857142 0.500000
vt 0.857142 1.000000
vt 0.849206 0.500000
vt 0.849206 1.000000
vt 0.841269 0.500000
vt 0.841269 1.000000
vt 0.833333 0.500000
vt 0.833333 1.000000
vt 0.825396 0.500000
vt 0.825396 1.000000
vt 0.817460 0.500000
vt 0.817460 1.000000
vt 0.809523 0.500000
vt 0.809523 1.000000
vt 0.801587 0.500000
vt 0.801587 1.000000
vt 0.793650 0.500000
vt 0.793650 1.000000
vt 0.785713 0.500000
vt 0.785713 1.000000
vt 0.777777 0.500000
vt 0.777777 1.000000
vt 0.769840 0.500000
vt 0.769840 1.000000
vt 0.761904 0.500000
vt 0.761904 1.000000
vt 0.753967 0.500000
vt 0.753967 1.000000
vt 0.746031 0.500000
vt 0.746031 1.000000
vt 0.738094 0.500000
vt 0.738094 1.000000
vt 0.730158 0.500000
vt 0.730158 1.000000
vt 0.722221 0.500000
vt 0.722221 1.000000
vt 0.714285 0.500000
vt 0.714285 1.000000
vt 0.706348 0.500000
vt 0.706348 1.000000
vt 0.698412 0.500000
vt 0.698412 1.000000
vt 0.690475 0.500000
vt 0.690475 1.000000
vt 0.682539 0.500000
vt 0.682539 1.000000
vt 0.674602 0.500000
vt 0.674602 1.000000
vt 0.666665 0.500000
vt 0.666665 1.000000
vt 0.658729 0.500000
vt 0.658729 1.000000
vt 0.650792 0.500000
vt 0.650792 1.000000
vt 0.642856 0.500000
vt 0.642856 1.000000
vt 0.634919 0.500000
vt 0.634919 1.000000
vt 0.626983 0.500000
vt 0.626983 1.000000
vt 0.619046 0.500000
vt 0.619046 1.000000
vt 0.611110 0.500000
vt 0.611110 1.000000
vt 0.603173 0.500000
vt 0.603173 1.000000
vt 0.595237 0.500000
vt 0.595237 1.000000
vt 0.587300 0.500000
vt 0.587300 1.000000
vt 0.579364 0.500000
vt 0.579364 1.000000
vt 0.571427 0.500000
vt 0.571427 1.000000
vt 0.563490 0.500000
vt 0.563490 1.000000
vt 0.555554 0.500000
vt 0.555554 1.000000
vt 0.547617 0.500000
vt 0.547617 1.000000
vt 0.539681 0.500000
vt 0.539681 1.000000
vt 0.531744 0.500000
vt 0.531744 1.000000
vt 0.523808 0.500000
vt 0.523808 1.000000
vt 0.515871 0.500000
vt 0.515871 1.000000
vt 0.507935 0.500000
vt 0.507935 1.000000
vt 0.499998 0.500000
vt 0.499998 1.000000
vt 0.492062 0.500000
vt 0.492062 1.000000
vt 0.484125 0.500000
vt 0.484125 1.000000
vt 0.476189 0.500000
vt 0.476189 1.000000
vt 0.468252 0.500000
vt 0.468252 1.000000
vt 0.460316 0.500000
vt 0.460316 1.000000
vt 0.452379 0.500000
vt 0.452379 1.000000
vt 0.444443 0.500000
vt 0.444443 1.000000
vt 0.436506 0.500000
vt 0.436506 1.000000
vt 0.428570 0.500000
vt 0.428570 1.000000
vt 0.420633 0.500000
vt 0.420633 1.000000
vt 0.412697 0.500000
vt 0.412697 1.000000
vt 0.404760 0.500000
vt 0.404760 1.000000
vt 0.396824 0.500000
vt 0.396824 1.000000
vt 0.388887 0.500000
vt 0.388887 1.000000
vt 0.380951 0.500000
vt 0.380951 1.000000
vt 0.373014 0.500000
vt 0.373014 1.000000
vt 0.365078 0.500000
vt 0.365078 1.000000
vt 0.357141 0.500000
vt 0.357141 1.000000
vt 0.349205 0.500000
vt 0.349205 1.000000
vt 0.341268 0.500000
vt 0.341268 1.000000
vt 0.333332 0.500000
vt 0.333332 1.000000
vt 0.325395 0.500000
vt 0.325395 1.000000
vt 0.317459 0.500000
vt 0.317459 1.000000
vt 0.309522 0.500000
vt 0.309522 1.000000
vt 0.301585 0.500000
vt 0.301585 1.000000
vt 0.293649 0.500000
vt 0.293649 1.000000
vt 0.285712 0.500000
vt 0.285712 1.000000
vt 0.277776 0.500000
vt 0.277776 1.000000
vt 0.269839 0.500000
vt 0.269839 1.000000
vt 0.261903 0.500000
vt 0.261903 1.000000
vt 0.253966 0.500000
vt 0.253966 1.000000
vt 0.246030 0.500000
vt 0.246030 1.000000
vt 0.238093 0.500000
vt 0.238093 1.000000
vt 0.230157 0.500000
vt 0.230157 1.000000
vt 0.222220 0.500000
vt 0.222220 1.000000
vt 0.214284 0.500000
vt 0.214284 1.000000
vt 0.206347 0.500000
vt 0.206347 1.000000
vt 0.198411 0.500000
vt 0.198411 1.000000
vt 0.190474 0.500000
vt 0.190474 1.000000
vt 0.182538 0.500000
vt 0.182538 1.000000
vt 0.174601 0.500000
vt 0.174601 1.000000
vt 0.166665 0.500000
vt 0.166665 1.000000
vt 0.158728 0.500000
vt 0.158728 1.000000
vt 0.150792 0.500000
vt 0.150792 1.000000
vt 0.142855 0.500000
vt 0.142855 1.000000
vt 0.134919 0.500000
vt 0.134919 1.000000
vt 0.126982 0.500000
vt 0.126982 1.000000
vt 0.119046 0.500000
vt 0.119046 1.000000
vt 0.111109 0.500000
vt 0.111109 1.000000
vt 0.103173 0.500000
vt 0.103173 1.000000
vt 0.095236 0.500000
vt 0.095236 1.000000
vt 0.087300 0.500000
vt 0.087300 1.000000
vt 0.079363 0.500000
vt 0.079363 1.000000
vt 0.071427 0.500000
vt 0.071427 1.000000
vt 0.063490 0.500000
vt 0.063490 1.000000
vt 0.055554 0.500000
vt 0.055554 1.000000
vt 0.047617 0.500000
vt 0.047617 1.000000
vt 0.039681 0.500000
vt 0.039681 1.000000
vt 0.031744 0.500000
vt 0.031744 1.000000
vt 0.023808 0.500000
vt 0.023808 1.000000
vt 0.015871 0.500000
vt 0.015871 1.000000
vt 0.007935 0.500000
vt 0.007935 1.000000
vt -0.000002 0.500000
vt -0.000002 1.000000
vn 0.0000 0.0000 1.0000
vn -0.0000 0.0498 0.9988
vn -0.0000 0.0996 0.9950
vn -0.0000 0.1490 0.9888
vn -0.0000 0.1981 0.9802
vn -0.0000 0.2468 0.9691
vn -0.0000 0.2948 0.9556
vn -0.0000 0.3420 0.9397
vn -0.0000 0.3884 0.9215
vn -0.0000 0.4339 0.9010
vn -0.0000 0.4783 0.8782
vn -0.0000 0.5214 0.8533
vn -0.0000 0.5633 0.8262
vn -0.0000 0.6038 0.7971
vn -0.0000 0.6428 0.7660
vn -0.0000 0.6802 0.7331
vn -0.0000 0.7159 0.6982
vn -0.0000 0.7498 0.6617
vn -0.0000 0.7818 0.6235
vn -0.0000 0.8119 0.5837
vn -0.0000 0.8400 0.5425
vn -0.0000 0.8660 0.5000
vn -0.0000 0.8899 0.4562
vn -0.0000 0.9115 0.4113
vn -0.0000 0.9309 0.3653
vn -0.0000 0.9479 0.3185
vn -0.0000 0.9626 0.2708
vn -0.0000 0.9749 0.2225
vn -0.0000 0.9848 0.1736
vn -0.0000 0.9922 0.1243
vn -0.0000 0.9972 0.0747
vn -0.0000 0.9997 0.0249
vn -0.0000 0.9997 -0.0249
vn -0.0000 0.9972 -0.0747
vn -0.0000 0.9922 -0.1243
vn -0.0000 0.9848 -0.1736
vn -0.0000 0.9749 -0.2225
vn -0.0000 0.9626 -0.2708
vn -0.0000 0.9479 -0.3185
vn -0.0000 0.9309 -0.3653
vn -0.0000 0.9115 -0.4113
vn -0.0000 0.8899 -0.4562
vn -0.0000 0.8660 -0.5000
vn -0.0000 0.8400 -0.5425
vn -0.0000 0.8119 -0.5837
vn -0.0000 0.7818 -0.6235
vn -0.0000 0.7498 -0.6617
vn -0.0000 0.7159 -0.6982
vn -0.0000 0.6802 -0.7331
vn -0.0000 0.6428 -0.7660
vn -0.0000 0.6038 -0.7971
vn -0.0000 0.5633 -0.8262
vn -0.0000 0.5214 -0.8533
vn -0.0000 0.4783 -0.8782
vn -0.0000 0.4339 -0.9010
vn -0.0000 0.3884 -0.9215
vn -0.0000 0.3420 -0.9397
vn -0.0000 0.2948 -0.9556
vn -0.0000 0.2468 -0.9691
vn -0.0000 0.1981 -0.9802
vn -0.0000 0.1490 -0.9888
vn 0.0000 0.0996 -0.9950
vn 0.0000 0.0498 -0.9988
vn 0.0000 0.0000 -1.0000
vn 0.0000 -0.0498 -0.9988
vn 0.0000 -0.0996 -0.9950
vn 0.0000 -0.1490 -0.9888
vn 0.0000 -0.1981 -0.9802
vn 0.0000 -0.2468 -0.9691
vn 0.0000 -0.2948 -0.9556
vn 0.0000 -0.3420 -0.9397
vn 0.0000 -0.3884 -0.9215
vn 0.0000 -0.4339 -0.9010
vn 0.0000 -0.4783 -0.8782
vn 0.0000 -0.5214 -0.8533
vn 0.0000 -0.5633 -0.8262
vn 0.0000 -0.6038 -0.7971
vn 0.0000 -0.6428 -0.7660
vn 0.0000 -0.6802 -0.7331
vn 0.0000 -0.7159 -0.6982
vn 0.0000 -0.7498 -0.6617
vn 0.0000 -0.7818 -0.6235
vn 0.0000 -0.8119 -0.5837
vn 0.0000 -0.8400 -0.5425
vn 0.0000 -0.8660 -0.5000
vn 0.0000 -0.8899 -0.4562
vn 0.0000 -0.9115 -0.4113
vn 0.0000 -0.9309 -0.3653
vn 0.0000 -0.9479 -0.3185
vn 0.0000 -0.9626 -0.2708
vn 0.0000 -0.9749 -0.2225
vn 0.0000 -0.9848 -0.1737
vn 0.0000 -0.9922 -0.1243
vn 0.0000 -0.9972 -0.0747
vn 0.0000 -0.9997 -0.0249
vn 0.0000 -0.9997 0.0249
vn 0.0000 -0.9972 0.0747
vn 0.0000 -0.9922 0.1243
vn 0.0000 -0.9848 0.1736
vn 0.0000 -0.9749 0.2225
vn 0.0000 -0.9626 0.2708
vn 0.0000 -0.9479 0.3185
vn 0.0000 -0.9309 0.3653
vn 0.0000 -0.9115 0.4113
vn 0.0000 -0.8899 0.4562
vn 0.0000 -0.8660 0.5000
vn 0.0000 -0.8400 0.5425
vn 0.0000 -0.8119 0.5837
vn 0.0000 -0.7818 0.6235
vn 0.0000 -0.7498 0.6617
vn 0.0000 -0.7159 0.6982
vn 0.0000 -0.6802 0.7331
vn 0.0000 -0.6428 0.7660
vn 0.0000 -0.6038 0.7971
vn 0.0000 -0.5633 0.8262
vn 0.0000 -0.5214 0.8533
vn 0.0000 -0.4783 0.8782
vn 0.0000 -0.4339 0.9010
vn 0.0000 -0.3884 0.9215
vn 0.0000 -0.3420 0.9397
vn 0.0000 -0.2948 0.9556
vn 0.0000 -0.2468 0.9691
vn 0.0000 -0.1981 0.9802
vn 0.0000 -0.1490 0.9888
vn 0.0000 -0.0996 0.9950
vn 0.0000 -0.0498 0.9988
usemtl None
s 1
f 1/1/1 3/2/2 4/3/2 2/4/1
f 3/2/2 5/5/3 6/6/3 4/3/2
f 5/5/3 7/7/4 8/8/4 6/6/3
f 7/7/4 9/9/5 10/10/5 8/8/4
f 9/9/5 11/11/6 12/12/6 10/10/5
f 11/11/6 13/13/7 14/14/7 12/12/6
f 13/13/7 15/15/8 16/16/8 14/14/7
f 15/15/8 17/17/9 18/18/9 16/16/8
f 17/17/9 19/19/10 20/20/10 18/18/9
f 19/19/10 21/21/11 22/22/11 20/20/10
f 21/21/11 23/23/12 24/24/12 22/22/11
f 23/23/12 25/25/13 26/26/13 24/24/12
f 25/25/13 27/27/14 28/28/14 26/26/13
f 27/27/14 29/29/15 30/30/15 28/28/14
f 29/29/15 31/31/16 32/32/16 30/30/15
f 31/31/16 33/33/17 34/34/17 32/32/16
f 33/33/17 35/35/18 36/36/18 34/34/17
f 35/35/18 37/37/19 38/38/19 36/36/18
f 37/37/19 39/39/20 40/40/20 38/38/19
f 39/39/20 41/41/21 42/42/21 40/40/20
f 41/41/21 43/43/22 44/44/22 42/42/21
f 43/43/22 45/45/23 46/46/23 44/44/22
f 45/45/23 47/47/24 48/48/24 46/46/23
f 47/47/24 49/49/25 50/50/25 48/48/24
f 49/49/25 51/51/26 52/52/26 50/50/25
f 51/51/26 53/53/27 54/54/27 52/52/26
f 53/53/27 55/55/28 56/56/28 54/54/27
f 55/55/28 57/57/29 58/58/29 56/56/28
f 57/57/29 59/59/30 60/60/30 58/58/29
f 59/59/30 61/61/31 62/62/31 60/60/30
f 61/61/31 63/63/32 64/64/32 62/62/31
f 63/63/32 65/65/33 66/66/33 64/64/32
f 65/65/33 67/67/34 68/68/34 66/66/33
f 67/67/34 69/69/35 70/70/35 68/68/34
f 69/69/35 71/71/36 72/72/36 70/70/35
f 71/71/36 73/73/37 74/74/37 72/72/36
f 73/73/37 75/75/38 76/76/38 74/74/37
f 75/75/38 77/77/39 78/78/39 76/76/38
f 77/77/39 79/79/40 80/80/40 78/78/39
f 79/79/40 81/81/41 82/82/41 80/80/40
f 81/81/41 83/83/42 84/84/42 82/82/41
f 83/83/42 85/85/43 86/86/43 84/84/42
f 85/85/43 87/87/44 88/88/44 86/86/43
f 87/87/44 89/89/45 90/90/45 88/88/44
f 89/89/45 91/91/46 92/92/46 90/90/45
f 91/91/46 93/93/47 94/94/47 92/92/46
f 93/93/47 95/95/48 96/96/48 94/94/47
f 95/95/48 97/97/49 98/98/49 96/96/48
f 97/97/49 99/99/50 100/100/50 98/98/49
f 99/99/50 101/101/51 102/102/51 100/100/50
f 101/101/51 103/103/52 104/104/52 102/102/51
f 103/103/52 105/105/53 106/106/53 104/104/52
f 105/105/53 107/107/54 108/108/54 106/106/53
f 107/107/54 109/109/55 110/110/55 108/108/54
f 109/109/55 111/111/56 112/112/56 110/110/55
f 111/111/56 113/113/57 114/114/57 112/112/56
f 113/113/57 115/115/58 116/116/58 114/114/57
f 115/115/58 117/117/59 118/118/59 116/116/58
f 117/117/59 119/119/60 120/120/60 118/118/59
f 119/119/60 121/121/61 122/122/61 120/120/60
f 121/121/61 123/123/62 124/124/62 122/122/61
f 123/123/62 125/125/63 126/126/63 124/124/62
f 125/125/63 127/127/64 128/128/64 126/126/63
f 127/127/64 129/129/65 130/130/65 128/128/64
f 129/129/65 131/131/66 132/132/66 130/130/65
f 131/131/66 133/133/67 134/134/67 132/132/66
f 133/133/67 135/135/68 136/136/68 134/134/67
f 135/135/68 137/137/69 138/138/69 136/136/68
f 137/137/69 139/139/70 140/140/70 138/138/69
f 139/139/70 141/141/71 142/142/71 140/140/70
f 141/141/71 143/143/72 144/144/72 142/142/71
f 143/143/72 145/145/73 146/146/73 144/144/72
f 145/145/73 147/147/74 148/148/74 146/146/73
f 147/147/74 149/149/75 150/150/75 148/148/74
f 149/149/75 151/151/76 152/152/76 150/150/75
f 151/151/76 153/153/77 154/154/77 152/152/76
f 153/153/77 155/155/78 156/156/78 154/154/77
f 155/155/78 157/157/79 158/158/79 156/156/78
f 157/157/79 159/159/80 160/160/80 158/158/79
f 159/159/80 161/161/81 162/162/81 160/160/80
f 161/161/81 163/163/82 164/164/82 162/162/81
f 163/163/82 165/165/83 166/166/83 164/164/82
f 165/165/83 167/167/84 168/168/84 166/166/83
f 167/167/84 169/169/85 170/170/85 168/168/84
f 169/169/85 171/171/86 172/172/86 170/170/85
f 171/171/86 173/173/87 174/174/87 172/172/86
f 173/173/87 175/175/88 176/176/88 174/174/87
f 175/175/88 177/177/89 178/178/89 176/176/88
f 177/177/89 179/179/90 180/180/90 178/178/89
f 179/179/90 181/181/91 182/182/91 180/180/90
f 181/181/91 183/183/92 184/184/92 182/182/91
f 183/183/92 185/185/93 186/186/93 184/184/92
f 185/185/93 187/187/94 188/188/94 186/186/93
f 187/187/94 189/189/95 190/190/95 188/188/94
f 189/189/95 191/191/96 192/192/96 190/190/95
f 191/191/96 193/193/97 194/194/97 192/192/96
f 193/193/97 195/195/98 196/196/98 194/194/97
f 195/195/98 197/197/99 198/198/99 196/196/98
f 197/197/99 199/199/100 200/200/100 198/198/99
f 199/199/100 201/201/101 202/202/101 200/200/100
f 201/201/101 203/203/102 204/204/102 202/202/101
f 203/203/102 205/205/103 206/206/103 204/204/102
f 205/205/103 207/207/104 208/208/104 206/206/103
f 207/207/104 209/209/105 210/210/105 208/208/104
f 209/209/105 211/211/106 212/212/106 210/210/105
f 211/211/106 213/213/107 214/214/107 212/212/106
f 213/213/107 215/215/108 216/216/108 214/214/107
f 215/215/108 217/217/109 218/218/109 216/216/108
f 217/217/109 219/219/110 220/220/110 218/218/109
f 219/219/110 221/221/111 222/222/111 220/220/110
f 221/221/111 223/223/112 224/224/112 222/222/111
f 223/223/112 225/225/113 226/226/113 224/224/112
f 225/225/113 227/227/114 228/228/114 226/226/113
f 227/227/114 229/229/115 230/230/115 228/228/114
f 229/229/115 231/231/116 232/232/116 230/230/115
f 231/231/116 233/233/117 234/234/117 232/232/116
f 233/233/117 235/235/118 236/236/118 234/234/117
f 235/235/118 237/237/119 238/238/119 236/236/118
f 237/237/119 239/239/120 240/240/120 238/238/119
f 239/239/120 241/241/121 242/242/121 240/240/120
f 241/241/121 243/243/122 244/244/122 242/242/121
f 243/243/122 245/245/123 246/246/123 244/244/122
f 245/245/123 247/247/124 248/248/124 246/246/123
f 247/247/124 249/249/125 250/250/125 248/248/124
f 249/249/125 251/251/126 252/252/126 250/250/125
f 251/251/126 1/253/1 2/254/1 252/252/126
